<svg width="1200" height="800" xmlns="http://www.w3.org/2000/svg">
  <defs>
    <style>
      .title { font-family: Arial, sans-serif; font-size: 18px; font-weight: bold; fill: #333; }
      .box { fill: #f8f9fa; stroke: #dee2e6; stroke-width: 2; rx: 8; ry: 8; }
      .process { fill: #e3f2fd; stroke: #1976d2; stroke-width: 2; rx: 8; ry: 8; }
      .component { fill: #f3e5f5; stroke: #7b1fa2; stroke-width: 2; rx: 8; ry: 8; }
      .api { fill: #e8f5e8; stroke: #388e3c; stroke-width: 2; rx: 8; ry: 8; }
      .text { font-family: Arial, sans-serif; font-size: 12px; fill: #333; text-anchor: middle; }
      .small-text { font-family: Arial, sans-serif; font-size: 10px; fill: #666; text-anchor: middle; }
      .arrow { stroke: #666; stroke-width: 2; fill: none; marker-end: url(#arrowhead); }
    </style>
    <marker id="arrowhead" markerWidth="10" markerHeight="7" refX="9" refY="3.5" orient="auto">
      <polygon points="0 0, 10 3.5, 0 7" fill="#666" />
    </marker>
  </defs>
  
  <!-- 标题 -->
  <text x="600" y="30" class="title">MyNote2 前端架构流程图</text>
  
  <!-- 用户访问层 -->
  <rect x="50" y="60" width="120" height="60" class="box"/>
  <text x="110" y="85" class="text">用户访问</text>
  <text x="110" y="100" class="small-text">浏览器</text>
  
  <!-- Next.js 路由层 -->
  <rect x="250" y="60" width="120" height="60" class="process"/>
  <text x="310" y="85" class="text">Next.js 路由</text>
  <text x="310" y="100" class="small-text">App Router</text>
  
  <!-- 页面组件层 -->
  <rect x="450" y="20" width="100" height="50" class="component"/>
  <text x="500" y="40" class="text">主页</text>
  <text x="500" y="55" class="small-text">page.tsx</text>
  
  <rect x="450" y="80" width="100" height="50" class="component"/>
  <text x="500" y="100" class="text">登录页</text>
  <text x="500" y="115" class="small-text">login/page.tsx</text>
  
  <rect x="450" y="140" width="100" height="50" class="component"/>
  <text x="500" y="160" class="text">笔记页</text>
  <text x="500" y="175" class="small-text">note/page.tsx</text>
  
  <!-- 组件层 -->
  <rect x="650" y="20" width="100" height="50" class="component"/>
  <text x="700" y="40" class="text">文件夹卡片</text>
  <text x="700" y="55" class="small-text">FolderCard</text>
  
  <rect x="650" y="80" width="100" height="50" class="component"/>
  <text x="700" y="100" class="text">笔记卡片</text>
  <text x="700" y="115" class="small-text">NoteCard</text>
  
  <rect x="650" y="140" width="100" height="50" class="component"/>
  <text x="700" y="160" class="text">创建弹窗</text>
  <text x="700" y="175" class="small-text">CreateModal</text>
  
  <!-- 状态管理层 -->
  <rect x="850" y="60" width="120" height="60" class="process"/>
  <text x="910" y="80" class="text">状态管理</text>
  <text x="910" y="95" class="small-text">React Hooks</text>
  <text x="910" y="110" class="small-text">useState/useEffect</text>
  
  <!-- API 服务层 -->
  <rect x="450" y="250" width="100" height="50" class="api"/>
  <text x="500" y="270" class="text">API 服务</text>
  <text x="500" y="285" class="small-text">api.ts</text>
  
  <!-- 类型定义层 -->
  <rect x="650" y="250" width="100" height="50" class="process"/>
  <text x="700" y="270" class="text">类型定义</text>
  <text x="700" y="285" class="small-text">types/index.ts</text>
  
  <!-- 后端 API -->
  <rect x="250" y="350" width="120" height="60" class="api"/>
  <text x="310" y="375" class="text">后端 API</text>
  <text x="310" y="390" class="small-text">FastAPI</text>
  
  <!-- 数据库 -->
  <rect x="50" y="350" width="120" height="60" class="box"/>
  <text x="110" y="375" class="text">数据库</text>
  <text x="110" y="390" class="small-text">PostgreSQL</text>
  
  <!-- 数据流程 -->
  <rect x="450" y="450" width="300" height="120" class="box"/>
  <text x="600" y="475" class="text">数据流程</text>
  <text x="480" y="500" class="small-text">1. 用户操作触发事件</text>
  <text x="480" y="520" class="small-text">2. 组件状态更新 (useState)</text>
  <text x="480" y="540" class="small-text">3. API 调用 (axios + 拦截器)</text>
  <text x="480" y="560" class="small-text">4. 后端处理并返回数据</text>
  
  <!-- 技术栈 -->
  <rect x="850" y="350" width="300" height="220" class="process"/>
  <text x="1000" y="375" class="text">技术栈</text>
  <text x="880" y="400" class="small-text">• Next.js 15 (React 框架)</text>
  <text x="880" y="420" class="small-text">• TypeScript (类型安全)</text>
  <text x="880" y="440" class="small-text">• Tailwind CSS (样式)</text>
  <text x="880" y="460" class="small-text">• Axios (HTTP 客户端)</text>
  <text x="880" y="480" class="small-text">• React Icons (图标)</text>
  <text x="880" y="500" class="small-text">• React Markdown (渲染)</text>
  <text x="880" y="520" class="small-text">• Zustand (状态管理)</text>
  <text x="880" y="540" class="small-text">• React Syntax Highlighter</text>
  
  <!-- 箭头连接 -->
  <line x1="170" y1="90" x2="250" y2="90" class="arrow"/>
  <line x1="370" y1="90" x2="450" y2="90" class="arrow"/>
  <line x1="550" y1="90" x2="650" y2="90" class="arrow"/>
  <line x1="750" y1="90" x2="850" y2="90" class="arrow"/>
  
  <line x1="500" y1="190" x2="500" y2="250" class="arrow"/>
  <line x1="500" y1="300" x2="370" y2="350" class="arrow"/>
  <line x1="250" y1="380" x2="170" y2="380" class="arrow"/>
  
  <line x1="550" y1="275" x2="650" y2="275" class="arrow"/>
  
  <!-- 反馈箭头 -->
  <line x1="310" y1="350" x2="500" y2="300" class="arrow" stroke-dasharray="5,5"/>
  <line x1="910" y1="120" x2="700" y2="190" class="arrow" stroke-dasharray="5,5"/>
  
</svg>